<?xml version="1.0" encoding="utf-8"?>
<!-- Generator: Adobe Illustrator 16.0.0, SVG Export Plug-In . SVG Version: 6.00 Build 0)  -->
<!DOCTYPE svg PUBLIC "-//W3C//DTD SVG 1.1//EN" "http://www.w3.org/Graphics/SVG/1.1/DTD/svg11.dtd">
<svg version="1.1" id="Layer_1" xmlns="http://www.w3.org/2000/svg" xmlns:xlink="http://www.w3.org/1999/xlink" x="0px" y="0px"
	 width="3000px" height="2000px" viewBox="0 0 3000 2000" enable-background="new 0 0 3000 2000" xml:space="preserve">
<rect fill="#0C0C4C" width="3000" height="2000"/>
<g>
	<g>
		<g>
			<path fill="#FFFFFF" d="M1236.232,1083.544v-0.325c0-33.034,25.909-58.944,61.05-58.944c19.917,0,34.007,6.154,45.991,16.519
				l-18.461,22.185c-8.098-6.802-16.193-10.688-27.368-10.688c-16.355,0-28.986,13.767-28.986,31.092v0.326
				c0,18.297,12.793,31.414,30.768,31.414c7.61,0,13.441-1.62,18.137-4.695v-13.766h-22.348v-22.995h52.144v51.011
				c-11.983,9.878-28.663,17.488-49.229,17.488C1262.627,1142.164,1236.232,1117.874,1236.232,1083.544z"/>
			<path fill="#FFFFFF" d="M1371.616,1021.684h30.768v118.213h-30.768V1021.684z"/>
			<path fill="#FFFFFF" d="M1424.084,1096.499v-0.323c0-24.939,20.403-45.828,48.582-45.828c28.014,0,48.257,20.564,48.257,45.504
				v0.324c0,24.938-20.405,45.826-48.583,45.826C1444.326,1142.002,1424.084,1121.436,1424.084,1096.499z M1490.963,1096.499v-0.323
				c0-10.688-7.772-19.757-18.623-19.757c-11.173,0-18.297,8.905-18.297,19.433v0.324c0,10.687,7.772,19.756,18.623,19.756
				C1483.838,1115.932,1490.963,1107.023,1490.963,1096.499z"/>
			<path fill="#FFFFFF" d="M1572.744,1129.21v10.687h-30.768v-118.213h30.768v42.267c5.992-7.288,13.441-13.603,26.559-13.603
				c20.891,0,38.865,17.326,38.865,45.341v0.325c0,28.499-17.975,45.827-38.702,45.827
				C1586.186,1141.841,1578.413,1135.85,1572.744,1129.21z M1607.885,1096.176v-0.324c0-11.498-7.935-19.756-17.974-19.756
				c-9.879,0-17.814,8.258-17.814,19.756v0.324c0,11.658,7.936,19.916,17.814,19.916
				C1599.95,1116.092,1607.885,1107.995,1607.885,1096.176z"/>
			<path fill="#FFFFFF" d="M1655.174,1114.799v-0.325c0-18.138,13.765-27.529,34.332-27.529c8.097,0,16.031,1.62,21.051,3.4v-1.457
				c0-9.068-5.667-14.251-17.489-14.251c-9.229,0-16.355,1.782-24.129,4.859l-6.314-21.7c9.878-4.049,20.403-6.802,35.464-6.802
				c15.707,0,26.396,3.725,33.357,10.688c6.641,6.478,9.394,15.547,9.394,27.853v50.361h-30.443v-9.066
				c-5.993,6.638-14.251,11.011-25.748,11.011C1667.968,1141.841,1655.174,1132.286,1655.174,1114.799z M1710.881,1108.158v-4.049
				c-3.077-1.296-7.449-2.268-11.982-2.268c-8.908,0-14.09,4.373-14.09,10.851v0.324c0,5.991,4.535,9.555,10.851,9.555
				C1704.564,1122.571,1710.881,1116.903,1710.881,1108.158z"/>
			<path fill="#FFFFFF" d="M1765.294,1021.684h30.769v118.213h-30.769V1021.684z"/>
			<path fill="#FFFFFF" d="M1903.754,1054.071h-34.006v-27.53h99.428v27.53h-34.006v85.825h-31.416V1054.071z"/>
			<path fill="#FFFFFF" d="M1973.551,1114.799v-0.325c0-18.138,13.765-27.529,34.331-27.529c8.099,0,16.032,1.62,21.052,3.4v-1.457
				c0-9.068-5.667-14.251-17.49-14.251c-9.229,0-16.354,1.782-24.128,4.859l-6.315-21.7c9.879-4.049,20.406-6.802,35.463-6.802
				c15.708,0,26.399,3.725,33.359,10.688c6.641,6.478,9.393,15.547,9.393,27.853v50.361h-30.443v-9.066
				c-5.992,6.638-14.25,11.011-25.748,11.011C1986.342,1141.841,1973.551,1132.286,1973.551,1114.799z M2029.258,1108.158v-4.049
				c-3.077-1.296-7.451-2.268-11.983-2.268c-8.907,0-14.089,4.373-14.089,10.851v0.324c0,5.991,4.534,9.555,10.85,9.555
				C2022.94,1122.571,2029.258,1116.903,2029.258,1108.158z"/>
			<path fill="#FFFFFF" d="M2083.672,1021.684h30.77v118.213h-30.77V1021.684z"/>
			<path fill="#FFFFFF" d="M2136.139,1096.499v-0.323c0-25.588,18.301-45.828,44.21-45.828c30.282,0,44.209,22.185,44.209,47.934
				c0,1.941,0,4.21-0.162,6.314h-58.621c2.431,9.554,9.392,14.412,18.947,14.412c7.285,0,13.117-2.754,19.431-8.907l17.005,14.089
				c-8.421,10.687-20.566,17.813-38.054,17.813C2155.573,1142.002,2136.139,1123.704,2136.139,1096.499z M2195.733,1088.888
				c-1.133-9.717-6.802-15.87-15.224-15.87c-8.097,0-13.602,6.316-15.221,15.87H2195.733z"/>
			<path fill="#FFFFFF" d="M2245.775,1052.289h30.768v12.308c5.666-7.288,13.766-14.249,26.232-14.249
				c18.623,0,29.799,12.307,29.799,32.226v57.323h-30.769v-47.447c0-9.553-5.02-14.735-12.309-14.735
				c-7.447,0-12.954,5.183-12.954,14.735v47.447h-30.768V1052.289z"/>
			<path fill="#FFFFFF" d="M2361.885,1112.692v-35.626h-10.363v-24.777h10.363v-22.185h30.77v22.185h20.404v24.777h-20.404v29.635
				c0,6.153,2.754,8.744,8.421,8.744c4.048,0,7.935-1.134,11.658-2.915v24.129c-5.506,3.077-12.792,5.021-21.374,5.021
				C2372.897,1141.68,2361.885,1133.582,2361.885,1112.692z"/>
		</g>
		<g>
			<g>
				<path fill="#D4AF37" d="M1288.429,1173.206h34.676v8.999h-24.627v9.326h21.672v8.997h-21.672v9.654h24.956v8.997h-35.005
					V1173.206z"/>
				<path fill="#D4AF37" d="M1339,1173.206h17.929c14.449,0,24.432,9.917,24.432,22.856v0.132c0,12.937-9.982,22.985-24.432,22.985
					H1339V1173.206z M1356.929,1210.05c8.275,0,13.858-5.582,13.858-13.725v-0.131c0-8.145-5.583-13.86-13.858-13.86h-7.814v27.716
					H1356.929z"/>
				<path fill="#D4AF37" d="M1396.205,1199.478v-26.271h10.113v26.009c0,7.486,3.744,11.361,9.918,11.361
					c6.172,0,9.917-3.742,9.917-11.033v-26.337h10.113v25.942c0,13.923-7.815,20.753-20.162,20.753
					C1403.757,1219.901,1396.205,1213.006,1396.205,1199.478z"/>
				<path fill="#D4AF37" d="M1451.11,1196.325v-0.131c0-13.071,9.851-23.776,23.972-23.776c8.669,0,13.856,2.891,18.126,7.094
					l-6.436,7.422c-3.547-3.218-7.159-5.188-11.757-5.188c-7.749,0-13.333,6.436-13.333,14.316v0.132
					c0,7.88,5.452,14.449,13.333,14.449c5.254,0,8.473-2.103,12.084-5.387l6.436,6.501c-4.728,5.058-9.982,8.211-18.848,8.211
					C1461.159,1219.969,1451.11,1209.525,1451.11,1196.325z"/>
				<path fill="#D4AF37" d="M1523.945,1172.879h9.326l19.702,46.301H1542.4l-4.203-10.311h-19.441l-4.201,10.311h-10.313
					L1523.945,1172.879z M1534.584,1199.937l-6.106-14.909l-6.108,14.909H1534.584z"/>
				<path fill="#D4AF37" d="M1571.43,1182.532h-13.989v-9.326h38.093v9.326h-13.99v36.647h-10.113V1182.532z"/>
				<path fill="#D4AF37" d="M1610.311,1173.206h10.113v45.974h-10.113V1173.206z"/>
				<path fill="#D4AF37" d="M1636.448,1196.325v-0.131c0-13.071,10.313-23.776,24.498-23.776c14.187,0,24.366,10.575,24.366,23.645
					v0.132c0,13.069-10.313,23.774-24.497,23.774C1646.629,1219.969,1636.448,1209.394,1636.448,1196.325z M1674.738,1196.325
					v-0.131c0-7.882-5.78-14.448-13.923-14.448c-8.145,0-13.793,6.436-13.793,14.316v0.132c0,7.88,5.78,14.449,13.924,14.449
					C1669.089,1210.644,1674.738,1204.206,1674.738,1196.325z"/>
				<path fill="#D4AF37" d="M1700.878,1173.206h9.326l21.541,28.307v-28.307h9.983v45.974h-8.604l-22.264-29.226v29.226h-9.983
					V1173.206z"/>
				<path fill="#D4AF37" d="M1783.564,1196.325v-0.131c0-13.071,9.851-23.776,23.971-23.776c8.668,0,13.857,2.891,18.127,7.094
					l-6.436,7.422c-3.548-3.218-7.158-5.188-11.757-5.188c-7.748,0-13.331,6.436-13.331,14.316v0.132
					c0,7.88,5.449,14.449,13.331,14.449c5.254,0,8.472-2.103,12.085-5.387l6.437,6.501c-4.729,5.058-9.983,8.211-18.85,8.211
					C1793.611,1219.969,1783.564,1209.525,1783.564,1196.325z"/>
				<path fill="#D4AF37" d="M1837.289,1196.325v-0.131c0-13.071,10.311-23.776,24.496-23.776s24.365,10.575,24.365,23.645v0.132
					c0,13.069-10.311,23.774-24.497,23.774C1847.468,1219.969,1837.289,1209.394,1837.289,1196.325z M1875.578,1196.325v-0.131
					c0-7.882-5.78-14.448-13.925-14.448c-8.142,0-13.792,6.436-13.792,14.316v0.132c0,7.88,5.779,14.449,13.924,14.449
					C1869.929,1210.644,1875.578,1204.206,1875.578,1196.325z"/>
				<path fill="#D4AF37" d="M1901.716,1173.206h9.327l21.542,28.307v-28.307h9.983v45.974h-8.605l-22.264-29.226v29.226h-9.983
					V1173.206z"/>
				<path fill="#D4AF37" d="M1957.016,1212.48l5.978-7.158c4.136,3.416,8.471,5.583,13.725,5.583c4.139,0,6.633-1.642,6.633-4.336
					v-0.13c0-2.562-1.575-3.876-9.26-5.846c-9.26-2.364-15.236-4.926-15.236-14.056v-0.132c0-8.339,6.698-13.854,16.092-13.854
					c6.696,0,12.412,2.099,17.074,5.843l-5.254,7.619c-4.072-2.824-8.079-4.532-11.953-4.532c-3.875,0-5.91,1.774-5.91,4.007v0.132
					c0,3.02,1.971,4.006,9.917,6.042c9.325,2.43,14.578,5.779,14.578,13.791v0.131c0,9.13-6.959,14.253-16.878,14.253
					C1969.56,1219.837,1962.533,1217.406,1957.016,1212.48z"/>
				<path fill="#D4AF37" d="M2008.048,1199.478v-26.271h10.114v26.009c0,7.486,3.742,11.361,9.916,11.361s9.918-3.742,9.918-11.033
					v-26.337h10.113v25.942c0,13.923-7.817,20.753-20.163,20.753S2008.048,1213.006,2008.048,1199.478z"/>
				<path fill="#D4AF37" d="M2064.991,1173.206h10.111v36.779h22.919v9.194h-33.03V1173.206z"/>
				<path fill="#D4AF37" d="M2116.348,1182.532h-13.988v-9.326h38.092v9.326h-13.988v36.647h-10.115V1182.532z"/>
				<path fill="#D4AF37" d="M2164.621,1172.879h9.324l19.703,46.301h-10.573l-4.204-10.311h-19.439l-4.203,10.311h-10.312
					L2164.621,1172.879z M2175.258,1199.937l-6.105-14.909l-6.107,14.909H2175.258z"/>
				<path fill="#D4AF37" d="M2207.31,1173.206h9.325l21.542,28.307v-28.307h9.981v45.974h-8.601l-22.265-29.226v29.226h-9.983
					V1173.206z"/>
				<path fill="#D4AF37" d="M2263.727,1196.325v-0.131c0-13.071,9.85-23.776,23.973-23.776c8.667,0,13.855,2.891,18.125,7.094
					l-6.436,7.422c-3.548-3.218-7.16-5.188-11.756-5.188c-7.751,0-13.334,6.436-13.334,14.316v0.132
					c0,7.88,5.452,14.449,13.334,14.449c5.255,0,8.471-2.103,12.084-5.387l6.435,6.501c-4.728,5.058-9.983,8.211-18.847,8.211
					C2273.773,1219.969,2263.727,1209.525,2263.727,1196.325z"/>
				<path fill="#D4AF37" d="M2333.081,1201.055l-17.667-27.849h11.821l10.97,18.456l11.164-18.456h11.492l-17.667,27.65v18.323
					h-10.113V1201.055z"/>
			</g>
		</g>
	</g>
	<g>
		<g>
			<path fill="#FFFFFF" d="M849.058,900.525c14.029,14.266,35.075,21.499,54.886,18.027c20.166-2.83,38.245-16.558,46.91-34.926
				c6.919-14.292,8.003-31.232,3.198-46.349c-4.708-14.977-15.376-27.826-28.954-35.624c-6.204-3.458-12.972-6.04-20.016-7.07
				c-18.381-3.57-38.165,1.99-52.236,14.277c-17.763,15.101-25.74,40.581-19.756,63.122
				C835.741,882.72,841.41,892.564,849.058,900.525z M880.028,885.272c-0.451,2.638-0.81,5.313-1.634,7.882
				c-2.224,0.507-4.393,1.193-6.465,2.113c-0.016,0.989-0.028,2.939-0.028,3.927c-3.969,2.113-8.649,3.872-10.46,8.388
				c-7.537-6.78-2.828-18.56-9.898-25.465c-4.188-4.888-5.041-11.93-2.966-17.93c-3.006-2.308-5.546-5.191-7.522-8.429
				c-0.358-2.183,1.961-3.323,3.116-4.792c0.15,4.05,0.467,9.636,4.639,11.602c0.66-0.812,2.004-2.432,2.679-3.241
				c6.106,2.211,12.285,4.929,17.379,8.923c-0.589,1.715-1.14,3.445-1.662,5.189c1.606-0.204,3.228-0.411,4.846-0.63
				c3.569,2.183,7.551,3.542,11.492,4.887C883.256,880.592,881.566,882.897,880.028,885.272z M909.367,821.34
				c4.159-1.495,8.292-3.034,12.52-4.365c2.471,1.139,5.025,2.114,7.66,2.87c0.468-2.375,0.151-6-2.814-6.425
				c-0.481,0.988-1.468,2.965-1.965,3.94c-2.593-2.266-6.753-2.24-8.661-5.23c3.293-0.81,6.465-2.114,9.802-2.707
				c6.41,1.099,10.818,6.618,14.413,11.601c6.755,10.078,11.752,21.705,12.521,33.923c-0.92,0.206-2.773,0.604-3.692,0.811
				c-2.732-4.352-4.131-9.72-7.896-13.524c1.416,5.877,3.954,11.383,6.729,16.724c0.92,0.162,2.772,0.48,3.693,0.645
				c-0.66,3.899-3.008,7.057-5.121,10.269c-2.471,3.583-1.703,8.086-1.729,12.177c-1.415,1.688-3.129,3.239-3.775,5.423
				c-1.716,6.451-7.276,10.914-12.904,13.976c-1.525-4.586-3.557-9.131-3.762-14.018c0.522-2.292,1.33-4.502,1.92-6.782
				c-0.877-2.69-2.305-5.176-3.308-7.824c-0.631-1.813,1.141-3.887,0.029-5.533c-1.785-1.113-3.762-1.838-5.643-2.746
				c-4.82,1.425-10.434,3.213-14.952-0.071c-4.597-2.401-5.861-7.921-5.792-12.697c0.027-3.651,0.631-7.866,3.708-10.268
				c3.063-2.526,5.161-5.931,7.604-9.02c-0.849-0.234-2.554-0.688-3.404-0.92c-0.164-2.211-0.164-4.435-0.054-6.646
				c2.566,0.29,5.147,0.508,7.729,0.782C911.288,824.238,910.327,822.796,909.367,821.34z M883.433,799.445
				c5.246-0.413,10.503,0.205,15.705,0.863c-3.68,1.153-7.618,2.197-10.267,5.191c-6.097,1.359-11.917,3.816-16.819,7.716
				c-2.086,2.003-4.819,0-6.245-1.746c0.412-0.643,1.233-1.905,1.659-2.552c-0.947-0.425-2.839-1.304-3.775-1.744
				C869.663,803.289,876.309,800.378,883.433,799.445z M844.238,827.739c2.363-2.815,4.229-5.986,6.399-8.938
				c2.057-0.494,4.201-0.712,6.123-1.675c1.564,1.153,3.06,2.403,4.57,3.639c-2.979,1.223-5.959,2.444-8.938,3.664
				c1.292,1.059,2.594,2.116,3.914,3.173c-1.951,0.508-3.899,1.001-5.862,1.482c-3.459,4.599-6.755,9.486-8.059,15.168
				c-1.814-0.124-3.639-0.178-5.438-0.371C838.775,838.282,840.421,832.392,844.238,827.739z"/>
			<path fill="#FFFFFF" d="M924.275,836.812c2.128,1.042,4.243,2.128,6.358,3.198c0.604-0.549,1.782-1.633,2.387-2.169
				c3.104,1.333,6.261,2.569,9.625,3.104c-0.206-1.605-0.412-3.212-0.646-4.818c-2.704-0.069-4.819-1.114-5.669-3.872
				c2.896,0.481,5.806,0.853,8.715,1.207c-1.715-2.773-3.898-5.215-6.519-7.151c-0.961,2.717-2.403,5.217-5.823,4.558
				c0.262,0.961,0.783,2.883,1.045,3.844c-3.048-3.829-5.601-8.58-10.737-9.925c1.882,2.334,3.927,4.516,5.851,6.809
				c-3.378-1.483-6.303-3.927-9.844-5.038c-4.477,0.18-6.851,4.873-10.448,7.029c4.036-0.207,8.02-0.921,12.042-1.196
				C923.026,832.556,923.423,835.055,924.275,836.812z"/>
		</g>
		<path fill="#FFFFFF" d="M801.185,809.619c-1.636,2.77-3.769,5.356-4.497,8.56c1.114,3.107,2.748,5.99,4.27,8.942
			c-3.701,12.69-11.918,23.561-23.063,30.666c3.996,1.635,8.013,3.316,12.074,4.856c4.291-0.362,10.214,1.908,12.919-2.655
			c6.535-10.215,6.555-22.88,7.262-34.57c3.587-5.403,2.589-11.305-1.633-15.981c-0.114-4.472-0.182-8.941-0.229-13.393
			c4.657,2.134,9.33,4.29,14.005,6.423c0.229,8.967,0.229,17.956,0,26.946c7.379-15.707,18.228-30.305,33.575-38.975
			c24.811-14.893,58.36-13.598,81.853,3.404c12.69,8.625,21.724,21.498,27.829,35.387c-0.068-8.989-0.09-17.977,0.092-26.964
			c21.835-10.171,43.561-20.612,65.193-31.212c-45.809-21.656-91.299-43.969-137.195-65.421c-1.729,0.839-5.133,2.564-6.857,3.404
			c-43.082,20.862-86.301,41.449-129.5,62.106c14.685,7.197,29.419,14.278,44.106,21.497
			C801.342,798.291,801.295,803.946,801.185,809.619z M893.206,753.732c22.155-0.566,43.221,10.988,56.908,27.99
			c-15.255-12.916-34.141-22.496-54.547-22.132c-21.313-1.088-41.448,8.422-57.384,21.951
			C851.53,765.084,871.778,753.845,893.206,753.732z"/>
		<path fill="#FFFFFF" d="M1009.226,933.423c0.089-10.104,2.085-20.408,0.658-30.374c-0.456,0-1.363,0-1.82,0
			c-1.338,4.88,0.047,10.057-0.384,15.051c-2.429,29.667-16.049,57.316-34.3,80.424c-0.726,0.952-2.155,2.905-2.88,3.881
			c27.033,0,54.046-0.044,81.08-0.044c-0.023,89.027,0.044,178.053,0,267.082c21.589,0.227,43.176-0.047,64.786,0.158
			c0-89.072,0.089-178.146,0.022-267.217c37.454,0.088,74.909,0.021,112.362,0c1.067-21.838-1.723-43.993,1.703-65.626
			c-8.716,0.977-17.478,0.567-26.219,0.612c-65.079,0-130.181-0.021-195.261-0.021
			C1009.042,936.373,1009.178,934.399,1009.226,933.423z"/>
		<path fill="#FFFFFF" d="M902.921,1283.586c-6.65-3.68-13.301-7.355-19.658-11.533c-38.521-25.128-66.261-64.398-81.764-107.322
			c-0.338,13.393-0.111,26.784-0.18,40.201c-17.726-0.159-35.456,0.294-53.163-0.205c-29.734-1.248-58.27-16.501-76.11-40.271
			c-19.432-25.489-25.966-60.517-15.845-91.046c11.828-39.655,50.214-69.778,91.686-70.959c23.492-0.248,47.01,0.204,70.503-0.136
			c3.792,0.476,5.674-3.472,8.014-5.675c15.162-18.978,34.071-34.616,54.274-47.964c5.559-3.745,11.621-6.854,16.524-11.486
			c-52.549,0.431-105.095-0.274-157.646,0.34c-6.493,1.157-13.053,1.999-19.568,2.906c-33.958,7.696-65.918,24.993-89.324,51.005
			c-34.365,36.75-49.756,89.55-41.561,139.08c7.468,46.104,35.48,88.233,74.956,113.113c23.268,14.981,50.37,23.403,77.856,25.673
			c34.529,0.522,69.028,0.112,103.558,0.227c8.94,0.158,18.044-0.817,26.875,1.203
			C882.333,1275.458,892.161,1280.701,902.921,1283.586z"/>
		<path fill="#FFFFFF" d="M794.624,1066.759c-31.168,0.068-62.359,0.044-93.523,0c-0.021,9.217-0.021,18.454,0,27.671
			c-0.047,12.303-0.021,24.604-0.021,36.908c30.733-0.067,61.47-0.023,92.182-0.045c-1.204-17.864-2.634-35.888,0.158-53.684
			C793.761,1073.978,794.191,1070.368,794.624,1066.759z"/>
		<path fill="#D4AF37" d="M890.776,1208.788c-10.554-30.054-8.262-62.694-1.725-93.338c3.678-15.506,8.491-30.782,15.119-45.286
			c14.665-28.783,38.545-51.005,58-76.363c4.766-5.423,9.19-11.188,13.097-17.271c4.925-7.606,8.987-15.754,12.325-24.199
			c13.505-31.847,13.03-69.802-1.046-101.399c-2.702-5.356-5.856-10.464-9.079-15.503c1.319,11.531,4.224,23.291,1.319,34.843
			c-5.789,29.192-28.49,52.072-54.095,65.556c-38.429,20.793-76.973,45.786-100.581,83.625
			c-17.889,28.238-22.248,62.561-20.769,95.36c2.769,45.354,23.674,88.959,55.317,121.26c9.6,10.739,20.746,19.977,32.78,27.854
			c6.398,4.244,13.188,7.923,20.067,11.326c11.983,6.445,25.034,10.398,37.768,15.029c7.812,1.858,15.735,3.224,23.724,4.085
			c-3.884-1.181-7.785-2.27-11.625-3.52C926.62,1276.342,901.834,1244.133,890.776,1208.788z"/>
	</g>
</g>
</svg>
